<svg width="32" height="36" viewBox="0 0 32 36" fill="none" xmlns="http://www.w3.org/2000/svg">
<path d="M0 18C0 9.1875 7.125 2 16 2C24.8125 2 32 9.1875 32 18C32 26.875 24.8125 34 16 34C7.125 34 0 26.875 0 18ZM10.9375 15.0625L13.875 18L10.9375 20.9375C10.3125 21.5625 10.3125 22.5 10.9375 23.0625C11.5 23.6875 12.4375 23.6875 13 23.0625L15.9375 20.125L18.9375 23.0625C19.5 23.6875 20.4375 23.6875 21 23.0625C21.625 22.5 21.625 21.5625 21 20.9375L18.0625 18L21 15.0625C21.625 14.5 21.625 13.5625 21 12.9375C20.4375 12.375 19.5 12.375 18.9375 12.9375L15.9375 15.9375L13 12.9375C12.4375 12.375 11.5 12.375 10.9375 12.9375C10.3125 13.5625 10.3125 14.5 10.9375 15.0625Z" fill="#F6F6F6" fill-opacity="0.2"/>
<path d="M0 18C0 9.1875 7.125 2 16 2C24.8125 2 32 9.1875 32 18C32 26.875 24.8125 34 16 34C7.125 34 0 26.875 0 18ZM10.9375 15.0625L13.875 18L10.9375 20.9375C10.3125 21.5625 10.3125 22.5 10.9375 23.0625C11.5 23.6875 12.4375 23.6875 13 23.0625L15.9375 20.125L18.9375 23.0625C19.5 23.6875 20.4375 23.6875 21 23.0625C21.625 22.5 21.625 21.5625 21 20.9375L18.0625 18L21 15.0625C21.625 14.5 21.625 13.5625 21 12.9375C20.4375 12.375 19.5 12.375 18.9375 12.9375L15.9375 15.9375L13 12.9375C12.4375 12.375 11.5 12.375 10.9375 12.9375C10.3125 13.5625 10.3125 14.5 10.9375 15.0625Z" fill="#F6F6F6" fill-opacity="0.32"/>
</svg>
