<svg width="27" height="32" viewBox="0 0 27 32" fill="none" xmlns="http://www.w3.org/2000/svg">
<g clip-path="url(#clip0_1_314)">
<path fill-rule="evenodd" clip-rule="evenodd" d="M13.5 0.214111L11.8979 1.15915L0.11145 8.1118V23.9072L13.5 31.8049L26.8885 23.9072V8.1118L15.2395 1.24024L13.5 0.214111ZM13.597 25.8211C8.30521 25.8211 4.01538 21.4381 4.01538 16.0315C4.01538 10.6249 8.30521 6.24188 13.597 6.24188C17.1378 6.24188 20.2579 8.25392 21.9167 11.1725L18.1247 13.4106C17.2311 11.7786 15.5575 10.6937 13.597 10.6937C10.7116 10.6937 8.37269 13.0835 8.37269 16.0315C8.37269 18.9795 10.7116 21.3693 13.597 21.3693C15.5446 21.3693 17.2433 20.2802 18.1417 18.6657L21.9288 20.8689C20.2803 23.8267 17.1666 25.8211 13.597 25.8211ZM22.8004 16.6034L22.9675 15.7611H23.9589V15.0022H23.106L23.3832 13.5245H22.6192L22.342 15.0022H21.6384L21.912 13.5245H21.1338L20.8602 15.0022H19.8332V15.7611H20.7287L20.5617 16.6034H19.5774V17.3513H20.4231L20.1601 18.8254H20.9242L21.1942 17.3513H21.8836L21.6064 18.8254H22.3882L22.6618 17.3513H23.7173V16.6034H22.8004ZM22.0293 16.6034H21.3328L21.4998 15.7611H22.1963L22.0293 16.6034Z" fill="#A6A6A6"/>
</g>
<defs>
<clipPath id="clip0_1_314">
<rect width="27" height="32" fill="white" transform="translate(0 0.00952148)"/>
</clipPath>
</defs>
</svg>
