<svg width="91" height="34" viewBox="0 0 91 34" fill="none" xmlns="http://www.w3.org/2000/svg">
<path d="M6.86703 10.2974C6.68982 10.2974 6.64552 10.2088 6.73412 10.0759L7.6645 8.87972C7.75311 8.74681 7.97463 8.6582 8.15184 8.6582H23.9683C24.1455 8.6582 24.1898 8.79111 24.1012 8.92403L23.348 10.0759C23.2594 10.2088 23.0379 10.3417 22.905 10.3417L6.86703 10.2974Z" fill="#A6A6A6"/>
<path d="M0.177215 14.3734C0 14.3734 -0.0443038 14.2848 0.0443038 14.1519L0.974684 12.9556C1.06329 12.8227 1.28481 12.7341 1.46203 12.7341H21.6646C21.8418 12.7341 21.9304 12.867 21.8861 13L21.5316 14.0632C21.4873 14.2405 21.3101 14.3291 21.1329 14.3291L0.177215 14.3734Z" fill="#A6A6A6"/>
<path d="M10.8988 18.4495C10.7216 18.4495 10.6773 18.3166 10.7659 18.1837L11.3861 17.0761C11.4747 16.9432 11.6519 16.8103 11.8292 16.8103H20.6899C20.8671 16.8103 20.9557 16.9432 20.9557 17.1204L20.8671 18.1837C20.8671 18.3609 20.6899 18.4938 20.557 18.4938L10.8988 18.4495Z" fill="#A6A6A6"/>
<path d="M56.8861 9.50013C54.095 10.209 52.1899 10.7406 49.4431 11.4495C48.7785 11.6267 48.7342 11.671 48.1583 11.0065C47.4937 10.2533 47.0064 9.76595 46.076 9.32291C43.2848 7.9495 40.5823 8.34823 38.057 9.98747C35.0443 11.9368 33.4937 14.8166 33.538 18.4052C33.5823 21.9495 36.019 24.8736 39.519 25.3609C42.5317 25.7596 45.057 24.6963 47.0507 22.4368C47.4494 21.9495 47.8038 21.4179 48.2469 20.7976C46.6519 20.7976 44.6583 20.7976 39.6962 20.7976C38.7659 20.7976 38.5443 20.2217 38.8545 19.4685C39.4304 18.0951 40.4937 15.7913 41.114 14.6394C41.2469 14.3735 41.557 13.9305 42.2216 13.9305C44.4811 13.9305 52.8102 13.9305 58.3481 13.9305C58.2595 15.1267 58.2595 16.3229 58.0823 17.5191C57.595 20.709 56.3988 23.633 54.4494 26.2027C51.2595 30.4115 47.095 33.0255 41.8228 33.7343C37.4811 34.3103 33.4494 33.4685 29.9051 30.8103C26.6266 28.3292 24.7659 25.0508 24.2785 20.9748C23.7026 16.1457 25.1203 11.8039 28.0443 7.9938C31.1899 3.87355 35.3545 1.25962 40.4494 0.329241C44.614 -0.423924 48.6013 0.063418 52.1899 2.50013C54.538 4.05076 56.2216 6.17734 57.3292 8.74697C57.595 9.1457 57.4178 9.36722 56.8861 9.50013Z" fill="#A6A6A6"/>
<path d="M71.5507 34C67.5191 33.9114 63.8419 32.7595 60.7406 30.1013C58.1267 27.8418 56.4874 24.9621 55.9558 21.5507C55.1583 16.5443 56.5317 12.114 59.5444 8.17093C62.7786 3.91776 66.6773 1.70257 71.9495 0.772189C76.4684 -0.0252793 80.7216 0.417759 84.576 3.03168C88.076 5.42409 90.2469 8.65827 90.8229 12.9114C91.576 18.8924 89.8482 23.7659 85.7279 27.9304C82.8039 30.8988 79.2153 32.7595 75.095 33.6013C73.8988 33.8228 72.7026 33.8671 71.5507 34ZM82.095 16.1013C82.0507 15.5254 82.0507 15.0823 81.9621 14.6393C81.1646 10.2532 77.133 7.77219 72.9241 8.74688C68.8039 9.67726 66.1457 12.2912 65.171 16.4557C64.3735 19.9114 66.0571 23.4114 69.2469 24.8292C71.6836 25.8925 74.1203 25.7595 76.4684 24.5633C79.9684 22.7469 81.8735 19.9114 82.095 16.1013Z" fill="#A6A6A6"/>
</svg>
