<svg width="30" height="30" viewBox="0 0 30 30" fill="none" xmlns="http://www.w3.org/2000/svg">
<g clip-path="url(#clip0_1_320)">
<path fill-rule="evenodd" clip-rule="evenodd" d="M30 0.00952148H0V30.0095H30V0.00952148ZM10.0952 23.6762L10.0998 23.6833C10.6216 24.4896 11.0504 25.1524 12 25.1524C12.9048 25.1524 13.5238 24.7714 13.5238 23.3905V13.819H16.3333V23.4381C16.3333 26.3429 14.6191 27.6762 12.1429 27.6762C9.90477 27.6762 8.57144 26.4857 7.90477 25.1048L10.0952 23.6762ZM22.9048 25.1524C21.5238 25.1524 20.7619 24.4381 20.1429 23.4381L17.8572 24.819C18.6667 26.4381 20.381 27.6762 23 27.6762C25.6667 27.6762 27.6667 26.2952 27.6667 23.7714C27.6667 21.4381 26.2857 20.3905 23.9048 19.3428L23.1905 19.0571C22 18.5333 21.4762 18.2 21.4762 17.3428C21.4762 16.6762 22 16.1524 22.8096 16.1524C23.6191 16.1524 24.1429 16.4857 24.6191 17.3428L26.8096 15.9143C25.9048 14.2952 24.6191 13.6762 22.8096 13.6762C20.2857 13.6762 18.6667 15.2952 18.6667 17.3905C18.6667 19.6762 20 20.7714 22.0477 21.6286L22.7619 21.9143L22.7831 21.9237C24.056 22.4894 24.8096 22.8243 24.8096 23.7714C24.8096 24.5809 24.0953 25.1524 22.9048 25.1524Z" fill="#A6A6A6"/>
</g>
<defs>
<clipPath id="clip0_1_320">
<rect width="30" height="30" fill="white" transform="translate(0 0.00952148)"/>
</clipPath>
</defs>
</svg>
