<svg width="58" height="32" viewBox="0 0 58 32" fill="none" xmlns="http://www.w3.org/2000/svg">
<path d="M29 0.258057C12.7394 0.258057 0 7.17769 0 16.0094C0 24.8411 12.7394 31.7608 29 31.7608C45.2605 31.7608 58 24.8411 58 16.0094C58 7.17769 45.2605 0.258057 29 0.258057ZM25.9886 5.10464H29.1559L28.1503 9.95122H30.9778C32.7712 9.95122 33.9749 10.2021 34.6594 10.8316C35.3295 11.4515 35.5325 12.4693 35.2635 13.8559L34.0081 19.6444H30.7888L31.9454 14.2913C32.0868 13.5578 32.0303 13.0465 31.7847 12.7768C31.5394 12.5071 31.0012 12.3745 30.1941 12.3745H27.6595L26.1302 19.6444H22.9583L25.9886 5.10464ZM12.0833 9.95122H18.5262C21.599 9.95122 23.4587 12.0149 22.7318 15.0959C21.8869 18.6741 19.6213 19.6444 15.4582 19.6444H13.4663L12.8338 23.2793H9.63363L12.0833 9.95122ZM37.4583 9.95122H43.9012C46.974 9.95122 48.8336 12.0149 48.1067 15.0959C47.2618 18.6741 44.9962 19.6444 40.8332 19.6444H38.8414L38.2087 23.2793H35.0086L37.4583 9.95122ZM14.8257 12.3745L13.9147 17.2211H15.9821C17.771 17.2211 19.4325 17.0175 19.7109 14.3434C19.8148 13.307 19.3852 12.3745 17.3179 12.3745H14.8257ZM40.2008 12.3745L39.2897 17.2211H41.3571C43.146 17.2211 44.8074 17.0175 45.0858 14.3434C45.1897 13.307 44.7603 12.3745 42.6928 12.3745H40.2008Z" fill="#A6A6A6"/>
</svg>
