<svg width="30" height="30" viewBox="0 0 30 30" fill="none" xmlns="http://www.w3.org/2000/svg">
<g clip-path="url(#clip0_1_326)">
<path d="M14.8768 0.0309973C7.26964 0.0309973 7.75072 3.33919 7.75072 3.33919V6.77669H14.985V7.85427H4.86964C4.86964 7.85427 0 7.25082 0 15.0148C0 22.7788 4.29964 22.4631 4.29964 22.4631H6.78214V18.8413C6.78214 18.8413 6.64286 14.517 10.9607 14.517H18.2057C18.2057 14.517 22.2471 14.5816 22.2471 10.5816V4.01807C22.2471 4.01807 22.86 0.0180664 14.9164 0.0180664L14.8768 0.0309973ZM10.8782 2.3338C11.1354 2.32727 11.3887 2.3976 11.6062 2.53588C11.8236 2.67417 11.9954 2.8742 12.0998 3.11068C12.2042 3.34717 12.2366 3.60947 12.1927 3.86444C12.1489 4.1194 12.0309 4.35557 11.8536 4.54307C11.6763 4.73057 11.4477 4.86098 11.1967 4.91782C10.9457 4.97465 10.6836 4.95535 10.4436 4.86236C10.2035 4.76937 9.99621 4.60686 9.84796 4.39539C9.69972 4.18392 9.61716 3.93298 9.61072 3.67432V3.65276C9.61072 3.48097 9.64436 3.31086 9.70973 3.15214C9.77509 2.99343 9.8709 2.84921 9.99169 2.72774C10.1125 2.60626 10.2559 2.5099 10.4137 2.44416C10.5715 2.37841 10.7406 2.34458 10.9114 2.34458L10.8782 2.3338Z" fill="#A6A6A6"/>
<path d="M15.0911 29.9987C22.6982 29.9987 22.2172 26.6798 22.2172 26.6798V23.253H14.984V22.1755H25.1304C25.1304 22.1755 30 22.7229 30 15.0041C30 7.28537 25.7004 7.55585 25.7004 7.55585H23.1858V11.1302C23.1858 11.1302 23.325 15.4546 19.0072 15.4546H11.759C11.759 15.4546 7.71432 15.3931 7.71432 19.3931V26.0009C7.71432 26.0009 7.10146 30.0009 15.045 30.0009H15.0879L15.0911 29.9987ZM19.0897 27.6852C18.8325 27.6917 18.5792 27.6214 18.3617 27.4831C18.1443 27.3448 17.9725 27.1448 17.8681 26.9083C17.7637 26.6718 17.7313 26.4095 17.7752 26.1545C17.819 25.8996 17.937 25.6634 18.1143 25.4759C18.2916 25.2884 18.5202 25.158 18.7712 25.1011C19.0222 25.0443 19.2843 25.0636 19.5243 25.1566C19.7644 25.2496 19.9717 25.4121 20.1199 25.6236C20.2682 25.835 20.3507 26.086 20.3572 26.3446V26.377C20.3572 26.7239 20.2201 27.0567 19.9762 27.302C19.7323 27.5473 19.4014 27.6852 19.0565 27.6852H19.0897Z" fill="#A6A6A6"/>
</g>
<defs>
<clipPath id="clip0_1_326">
<rect width="30" height="30" fill="white" transform="translate(0 0.00952148)"/>
</clipPath>
</defs>
</svg>
