<svg width="30" height="30" viewBox="0 0 30 30" fill="none" xmlns="http://www.w3.org/2000/svg">
<g clip-path="url(#clip0_1_329)">
<path d="M0 15.0095V30.0095H30V0.00952148H0V15.0095ZM24.1763 13.8145C24.9387 14.0045 25.5187 14.3433 26.0525 14.8958C26.3287 15.1908 26.7388 15.7283 26.7712 15.8583C26.7812 15.8958 25.4763 16.7708 24.6863 17.262C24.6575 17.2808 24.5425 17.157 24.415 16.967C24.0275 16.4045 23.6237 16.162 23.005 16.1195C22.095 16.057 21.51 16.5333 21.515 17.3283C21.5067 17.5238 21.5507 17.7179 21.6425 17.8908C21.8425 18.3045 22.215 18.5533 23.38 19.057C25.5288 19.982 26.4475 20.5908 27.0187 21.457C27.6562 22.4233 27.8 23.967 27.3662 25.1145C26.8912 26.362 25.71 27.2095 24.0475 27.4895C23.5338 27.5808 22.315 27.567 21.7625 27.467C20.5575 27.252 19.415 26.657 18.71 25.8758C18.4338 25.572 17.895 24.7758 17.9288 24.7195C17.9425 24.6995 18.0662 24.6233 18.2038 24.5433C18.3387 24.467 18.8425 24.1758 19.3188 23.8995L20.1813 23.3995L20.3625 23.667C20.615 24.052 21.1663 24.5808 21.5 24.757C22.4575 25.262 23.7712 25.1908 24.4188 24.6095C24.549 24.4998 24.652 24.3615 24.7199 24.2054C24.7878 24.0493 24.8186 23.8795 24.81 23.7095C24.81 23.362 24.7662 23.2095 24.585 22.947C24.3525 22.6145 23.8762 22.3345 22.5237 21.747C20.9762 21.0808 20.31 20.667 19.7 20.0095C19.3193 19.5756 19.0381 19.0636 18.8762 18.5095C18.7625 18.0858 18.7337 17.0233 18.8237 16.5958C19.1425 15.0995 20.2712 14.0583 21.9 13.7483C22.4288 13.6483 23.6575 13.6858 24.1763 13.8145ZM17.1337 15.067L17.1437 16.2958H13.2375V27.3908H10.475V16.2958H6.5725V15.0908C6.5725 14.4233 6.58625 13.8658 6.605 13.8533C6.62 13.8333 8.99625 13.8233 11.8763 13.8283L17.12 13.8433L17.1337 15.067Z" fill="#A6A6A6"/>
</g>
<defs>
<clipPath id="clip0_1_329">
<rect width="30" height="30" fill="white" transform="translate(0 0.00952148)"/>
</clipPath>
</defs>
</svg>
